<svg id="Layer_1" data-name="Layer 1" xmlns="http://www.w3.org/2000/svg" xmlns:xlink="http://www.w3.org/1999/xlink" viewBox="0 0 24 24"><defs><style>.cls-1{fill:url(#linear-gradient);}</style><linearGradient id="linear-gradient" x1="0.05" y1="12" x2="23.95" y2="12" gradientUnits="userSpaceOnUse"><stop offset="0" stop-color="#ffcd94"/><stop offset="1" stop-color="#ff9894"/></linearGradient></defs><title>Artboard 1</title><path class="cls-1" d="M5.34,19.44,4.16,21.07A12,12,0,0,1,.05,13h2A10,10,0,0,0,5.34,19.44ZM21.95,13a10,10,0,0,1-3.31,6.45l1.18,1.63A12,12,0,0,0,23.95,13ZM2.05,11A10,10,0,0,1,5.36,4.54L4.18,2.91A12,12,0,0,0,.05,11ZM7,3.37A9.91,9.91,0,0,1,17,3.38l1.18-1.62a11.92,11.92,0,0,0-12.42,0Zm12.86-.44L18.65,4.56A10,10,0,0,1,21.95,11h2A12,12,0,0,0,19.84,2.93ZM17,20.63A9.91,9.91,0,0,1,7,20.62L5.78,22.25a11.92,11.92,0,0,0,12.43,0Z"/></svg>